C:\Users\Nicos\Documents\OpenSimProjects\SprintingProject\Study1\PredictiveResults\IC_pred_Sprinting_optimum_26-October-2023__22-16-26_p02_maxVel_01___HTD_Plus_4_GRF.mot
version=1
nRows=7
nColumns=127
inDegrees=yes
endheader
time	ground_force_vx	ground_force_vy	ground_force_vz	ground_force_px	ground_force_py	ground_force_pz	ground_torque_x	ground_torque_y	ground_torque_z	1_ground_force_vx	1_ground_force_vy	1_ground_force_vz	1_ground_force_px	1_ground_force_py	1_ground_force_pz	1_ground_torque_x	1_ground_torque_y	1_ground_torque_z	2_ground_force_vx	2_ground_force_vy	2_ground_force_vz	2_ground_force_px	2_ground_force_py	2_ground_force_pz	2_ground_torque_x	2_ground_torque_y	2_ground_torque_z	3_ground_force_vx	3_ground_force_vy	3_ground_force_vz	3_ground_force_px	3_ground_force_py	3_ground_force_pz	3_ground_torque_x	3_ground_torque_y	3_ground_torque_z	4_ground_force_vx	4_ground_force_vy	4_ground_force_vz	4_ground_force_px	4_ground_force_py	4_ground_force_pz	4_ground_torque_x	4_ground_torque_y	4_ground_torque_z	5_ground_force_vx	5_ground_force_vy	5_ground_force_vz	5_ground_force_px	5_ground_force_py	5_ground_force_pz	5_ground_torque_x	5_ground_torque_y	5_ground_torque_z	6_ground_force_vx	6_ground_force_vy	6_ground_force_vz	6_ground_force_px	6_ground_force_py	6_ground_force_pz	6_ground_torque_x	6_ground_torque_y	6_ground_torque_z	7_ground_force_vx	7_ground_force_vy	7_ground_force_vz	7_ground_force_px	7_ground_force_py	7_ground_force_pz	7_ground_torque_x	7_ground_torque_y	7_ground_torque_z	8_ground_force_vx	8_ground_force_vy	8_ground_force_vz	8_ground_force_px	8_ground_force_py	8_ground_force_pz	8_ground_torque_x	8_ground_torque_y	8_ground_torque_z	9_ground_force_vx	9_ground_force_vy	9_ground_force_vz	9_ground_force_px	9_ground_force_py	9_ground_force_pz	9_ground_torque_x	9_ground_torque_y	9_ground_torque_z	10_ground_force_vx	10_ground_force_vy	10_ground_force_vz	10_ground_force_px	10_ground_force_py	10_ground_force_pz	10_ground_torque_x	10_ground_torque_y	10_ground_torque_z	11_ground_force_vx	11_ground_force_vy	11_ground_force_vz	11_ground_force_px	11_ground_force_py	11_ground_force_pz	11_ground_torque_x	11_ground_torque_y	11_ground_torque_z	12_ground_force_vx	12_ground_force_vy	12_ground_force_vz	12_ground_force_px	12_ground_force_py	12_ground_force_pz	12_ground_torque_x	12_ground_torque_y	12_ground_torque_z	13_ground_force_vx	13_ground_force_vy	13_ground_force_vz	13_ground_force_px	13_ground_force_py	13_ground_force_pz	13_ground_torque_x	13_ground_torque_y	13_ground_torque_z
0.056000	-99.842050	39.460526	3.417092	0.388441	-0.001966	0.403969	0.000000	0.000000	0.000000	-0.150195	0.061311	0.008534	0.348721	0.006797	0.428102	0.000000	0.000000	0.000000	-0.000325	0.000143	0.000042	0.325497	0.012630	0.426047	0.000000	0.000000	0.000000	-0.006444	0.002751	0.000837	0.326067	0.009842	0.404023	0.000000	0.000000	0.000000	-0.000000	0.000000	0.000000	0.246379	0.026498	0.463410	0.000000	0.000000	0.000000	-0.000011	0.000005	0.000002	0.296251	0.015760	0.423704	0.000000	0.000000	0.000000	-0.000000	0.000000	0.000000	0.179267	0.028279	0.414335	0.000000	0.000000	0.000000	-0.000000	0.000000	0.000000	-0.584860	0.267919	0.174115	0.000000	0.000000	0.000000	-0.000000	0.000000	0.000000	-0.559915	0.287715	0.157458	0.000000	0.000000	0.000000	-0.000000	0.000000	0.000000	-0.544854	0.298564	0.165106	0.000000	0.000000	0.000000	-0.000000	0.000000	0.000000	-0.551208	0.296887	0.186667	0.000000	0.000000	0.000000	-0.000000	0.000000	0.000000	-0.500629	0.337191	0.142726	0.000000	0.000000	0.000000	-0.000000	0.000000	0.000000	-0.532987	0.311804	0.172723	0.000000	0.000000	0.000000	-0.000000	0.000000	0.000000	-0.485519	0.364762	0.203192	0.000000	0.000000	0.000000
0.056648	-119.982699	47.800368	3.423057	0.393037	-0.002335	0.403863	0.000000	0.000000	0.000000	-0.274735	0.113088	0.014320	0.353044	0.006168	0.427918	0.000000	0.000000	0.000000	-0.000728	0.000322	0.000092	0.329557	0.011873	0.425710	0.000000	0.000000	0.000000	-0.013010	0.005597	0.001641	0.330278	0.009159	0.403653	0.000000	0.000000	0.000000	-0.000000	0.000000	0.000000	0.250068	0.025362	0.462838	0.000000	0.000000	0.000000	-0.000027	0.000012	0.000004	0.300284	0.014917	0.423255	0.000000	0.000000	0.000000	-0.000000	0.000000	0.000000	0.183191	0.027090	0.413436	0.000000	0.000000	0.000000	-0.000000	0.000000	0.000000	-0.573602	0.267891	0.173439	0.000000	0.000000	0.000000	-0.000000	0.000000	0.000000	-0.548761	0.287736	0.156857	0.000000	0.000000	0.000000	-0.000000	0.000000	0.000000	-0.533818	0.298638	0.164594	0.000000	0.000000	0.000000	-0.000000	0.000000	0.000000	-0.540222	0.296948	0.186136	0.000000	0.000000	0.000000	-0.000000	0.000000	0.000000	-0.489765	0.337334	0.142359	0.000000	0.000000	0.000000	-0.000000	0.000000	0.000000	-0.522053	0.311894	0.172251	0.000000	0.000000	0.000000	-0.000000	0.000000	0.000000	-0.474993	0.364921	0.202880	0.000000	0.000000	0.000000
0.058696	-181.548105	74.991638	0.409760	0.407197	-0.003388	0.403749	0.000000	0.000000	0.000000	-1.536101	0.655818	0.044310	0.366357	0.004271	0.427513	0.000000	0.000000	0.000000	-0.008280	0.003801	0.000900	0.342040	0.009543	0.424778	0.000000	0.000000	0.000000	-0.105811	0.047241	0.011372	0.343238	0.007064	0.402631	0.000000	0.000000	0.000000	-0.000000	0.000000	0.000000	0.261390	0.021800	0.461103	0.000000	0.000000	0.000000	-0.000451	0.000207	0.000064	0.312686	0.012298	0.421955	0.000000	0.000000	0.000000	-0.000000	0.000000	0.000000	0.195270	0.023321	0.410665	0.000000	0.000000	0.000000	-0.000000	0.000000	0.000000	-0.538027	0.267778	0.171351	0.000000	0.000000	0.000000	-0.000000	0.000000	0.000000	-0.513480	0.287764	0.155009	0.000000	0.000000	0.000000	-0.000000	0.000000	0.000000	-0.498874	0.298785	0.162957	0.000000	0.000000	0.000000	-0.000000	0.000000	0.000000	-0.505436	0.297056	0.184439	0.000000	0.000000	0.000000	-0.000000	0.000000	0.000000	-0.455394	0.337706	0.141166	0.000000	0.000000	0.000000	-0.000000	0.000000	0.000000	-0.487441	0.312097	0.170736	0.000000	0.000000	0.000000	-0.000000	0.000000	0.000000	-0.441712	0.365343	0.201853	0.000000	0.000000	0.000000
0.060180	-222.894346	95.428772	-4.728081	0.417029	-0.004080	0.403901	0.000000	0.000000	0.000000	-4.410161	1.950700	0.031560	0.375603	0.002958	0.427416	0.000000	0.000000	0.000000	-0.043755	0.020852	0.004025	0.350689	0.007893	0.424256	0.000000	0.000000	0.000000	-0.434090	0.201112	0.039230	0.352227	0.005577	0.402060	0.000000	0.000000	0.000000	-0.000000	0.000000	0.000000	0.269234	0.019253	0.459944	0.000000	0.000000	0.000000	-0.003190	0.001522	0.000405	0.321285	0.010433	0.421158	0.000000	0.000000	0.000000	-0.000000	0.000000	0.000000	0.203670	0.020596	0.408766	0.000000	0.000000	0.000000	-0.000000	0.000000	0.000000	-0.512247	0.267672	0.169878	0.000000	0.000000	0.000000	-0.000000	0.000000	0.000000	-0.487883	0.287749	0.153713	0.000000	0.000000	0.000000	-0.000000	0.000000	0.000000	-0.473482	0.298813	0.161751	0.000000	0.000000	0.000000	-0.000000	0.000000	0.000000	-0.480159	0.297055	0.183188	0.000000	0.000000	0.000000	-0.000000	0.000000	0.000000	-0.430444	0.337900	0.140273	0.000000	0.000000	0.000000	-0.000000	0.000000	0.000000	-0.462300	0.312165	0.169614	0.000000	0.000000	0.000000	-0.000000	0.000000	0.000000	-0.417571	0.365574	0.201068	0.000000	0.000000	0.000000
0.060829	-240.144331	104.797015	-7.843932	0.421186	-0.004375	0.404033	0.000000	0.000000	0.000000	-6.550805	2.952912	-0.020877	0.379514	0.002394	0.427429	0.000000	0.000000	0.000000	-0.088347	0.042894	0.007327	0.354343	0.007177	0.424072	0.000000	0.000000	0.000000	-0.780869	0.368496	0.063403	0.356026	0.004930	0.401859	0.000000	0.000000	0.000000	-0.000001	0.000000	0.000000	0.272551	0.018153	0.459471	0.000000	0.000000	0.000000	-0.007344	0.003568	0.000871	0.324921	0.009624	0.420852	0.000000	0.000000	0.000000	-0.000000	0.000000	0.000000	0.207231	0.019412	0.407974	0.000000	0.000000	0.000000	-0.000000	0.000000	0.000000	-0.500988	0.267618	0.169243	0.000000	0.000000	0.000000	-0.000000	0.000000	0.000000	-0.476697	0.287733	0.153156	0.000000	0.000000	0.000000	-0.000000	0.000000	0.000000	-0.462378	0.298805	0.161218	0.000000	0.000000	0.000000	-0.000000	0.000000	0.000000	-0.469104	0.297034	0.182636	0.000000	0.000000	0.000000	-0.000000	0.000000	0.000000	-0.419538	0.337965	0.139875	0.000000	0.000000	0.000000	-0.000000	0.000000	0.000000	-0.451307	0.312175	0.169118	0.000000	0.000000	0.000000	-0.000000	0.000000	0.000000	-0.407024	0.365656	0.200714	0.000000	0.000000	0.000000
0.062877	-292.700837	136.763297	-19.725715	0.433691	-0.005309	0.404712	0.000000	0.000000	0.000000	-16.628220	8.017055	-0.584933	0.391295	0.000635	0.427701	0.000000	0.000000	0.000000	-0.722032	0.374661	0.039840	0.365351	0.004930	0.423694	0.000000	0.000000	0.000000	-4.203965	2.119780	0.223416	0.367476	0.002880	0.401442	0.000000	0.000000	0.000000	-0.000028	0.000016	0.000005	0.282561	0.014733	0.458136	0.000000	0.000000	0.000000	-0.092853	0.048170	0.008599	0.335882	0.007084	0.420087	0.000000	0.000000	0.000000	-0.000011	0.000005	0.000003	0.218006	0.015701	0.405657	0.000000	0.000000	0.000000	-0.000000	0.000000	0.000000	-0.465443	0.267430	0.167281	0.000000	0.000000	0.000000	-0.000000	0.000000	0.000000	-0.441341	0.287652	0.151449	0.000000	0.000000	0.000000	-0.000000	0.000000	0.000000	-0.427224	0.298695	0.159511	0.000000	0.000000	0.000000	-0.000000	0.000000	0.000000	-0.434107	0.296884	0.180865	0.000000	0.000000	0.000000	-0.000000	0.000000	0.000000	-0.385044	0.338090	0.138584	0.000000	0.000000	0.000000	-0.000000	0.000000	0.000000	-0.416517	0.312123	0.167519	0.000000	0.000000	0.000000	-0.000000	0.000000	0.000000	-0.373690	0.365835	0.199552	0.000000	0.000000	0.000000
0.064361	-328.330875	162.528230	-28.411821	0.442112	-0.005998	0.405381	0.000000	0.000000	0.000000	-33.528653	17.104887	-1.787747	0.399246	-0.000630	0.428062	0.000000	0.000000	0.000000	-2.811292	1.543429	0.113511	0.372775	0.003305	0.423567	0.000000	0.000000	0.000000	-10.621510	5.667958	0.405268	0.375199	0.001384	0.401299	0.000000	0.000000	0.000000	-0.000379	0.000220	0.000058	0.289332	0.012299	0.457308	0.000000	0.000000	0.000000	-0.519064	0.284738	0.040674	0.343283	0.005252	0.419685	0.000000	0.000000	0.000000	-0.000185	0.000101	0.000042	0.225316	0.013040	0.404158	0.000000	0.000000	0.000000	-0.000000	0.000000	0.000000	-0.439695	0.267266	0.165894	0.000000	0.000000	0.000000	-0.000000	0.000000	0.000000	-0.415700	0.287556	0.150252	0.000000	0.000000	0.000000	-0.000000	0.000000	0.000000	-0.401687	0.298536	0.158251	0.000000	0.000000	0.000000	-0.000000	0.000000	0.000000	-0.408683	0.296695	0.179558	0.000000	0.000000	0.000000	-0.000000	0.000000	0.000000	-0.360015	0.338104	0.137617	0.000000	0.000000	0.000000	-0.000000	0.000000	0.000000	-0.391255	0.312007	0.166334	0.000000	0.000000	0.000000	-0.000000	0.000000	0.000000	-0.349526	0.365890	0.198666	0.000000	0.000000	0.000000
